<svg y="551.165" x="978.5" version="1.1" width="375" height="67" viewBox="0 0 375 67" id="svg341268" xmlns:xlink="http://www.w3.org/1999/xlink" xmlns="http://www.w3.org/2000/svg" xmlns:svg="http://www.w3.org/2000/svg" xmlns:rdf="http://www.w3.org/1999/02/22-rdf-syntax-ns#" xmlns:cc="http://creativecommons.org/ns#" xmlns:dc="http://purl.org/dc/elements/1.1/">
 <metadata id="metadata341274">image/svg+xml</metadata>

 <linearGradient id="3d_gradient2-logo-be9fcf93-76f3-4195-b816-3f382377cd48" x1="30%" y1="120%" x2="-10%" y2="30%" spreadMethod="pad">
  <stop offset="0%" stop-color="#ffffff" id="stop341249"/>
  <stop offset="100%" stop-color="#000000" id="stop341251"/>
 </linearGradient>
 <linearGradient id="3d_gradient3-logo-be9fcf93-76f3-4195-b816-3f382377cd48" x1="30%" y1="120%" x2="-10%" y2="30%" spreadMethod="pad" gradientTransform="rotate(-30)">
  <stop offset="0%" stop-color="#ffffff" id="stop341254"/>
  <stop offset="50%" stop-color="#cccccc" id="stop341256"/>
  <stop offset="100%" stop-color="#000000" id="stop341258"/>
 </linearGradient>
 <g id="logo-group">
  <g id="logo-center">
   <image width="0" height="0" y="-350.7486" x="-324.72183" id="icon_container"/>
   <g text-anchor="middle" font-family="Raleway" font-size="32px" font-weight="600" font-style="normal" transform="translate(0 0)" id="slogan"/>
   <g text-anchor="middle" font-family="'Comfortaa Bold Alt1'" font-size="72px" font-weight="700" font-style="normal" transform="translate(0 0)" id="title">
    <path transform="translate(1.70530e-13 0) translate(0 295.688)" stroke="#5e636e" fill="#5e636e" stroke-miterlimit="2" stroke-width="0" d="m16.83865,-236.65419c1.3104,-2.35872 1.9656,-4.97952 1.9656,-7.99344l0,-32.36688c0,-0.9828 -0.3276,-1.76904 -0.91728,-2.42424c-0.6552,-0.58968 -1.44144,-0.91728 -2.42424,-0.91728c-0.9828,0 -1.76904,0.3276 -2.42424,0.91728c-0.6552,0.6552 -0.91728,1.44144 -0.91728,2.42424l0,32.36688c0,2.6208 -0.85176,4.71744 -2.48976,6.35544c-1.70352,1.638 -3.80016,2.42424 -6.35544,2.42424c-0.9828,0 -1.76904,0.3276 -2.35872,0.9828c-0.6552,0.6552 -0.91728,1.44144 -0.91728,2.35872c0,0.9828 0.26208,1.76904 0.91728,2.42424c0.58968,0.6552 1.37592,0.91728 2.35872,0.91728c3.01392,0 5.70024,-0.6552 8.05896,-1.9656c2.35872,-1.3104 4.19328,-3.14496 5.50368,-5.50368z" id="path341277"/>
    <path transform="translate(1.70530e-13 0) translate(0 295.688)" stroke="#666a75" fill="#666a75" stroke-miterlimit="2" stroke-width="0" d="m39.2027,-279.43875c-0.65521,0.6552 -0.91729,1.44144 -0.91729,2.42424l0,29.1564c0,0.9828 0.26208,1.76904 0.91729,2.42424c0.65519,0.6552 1.44144,0.91728 2.42424,0.91728c0.98279,0 1.76903,-0.26208 2.42423,-0.91728c0.58969,-0.6552 0.91728,-1.44144 0.91728,-2.42424l0,-29.1564c0,-0.9828 -0.32759,-1.76904 -0.91728,-2.42424c-0.6552,-0.58968 -1.44144,-0.91728 -2.42423,-0.91728c-0.9828,0 -1.76905,0.3276 -2.42424,0.91728z" id="path341279"/>
    <path transform="translate(1.70530e-13 0) translate(0 295.688)" stroke="#6d727c" fill="#6d727c" stroke-miterlimit="2" stroke-width="0" d="m96.72643,-247.85811l0,-29.22192c0,-0.9828 -0.3276,-1.76904 -0.91728,-2.42424c-0.6552,-0.58968 -1.44144,-0.91728 -2.42424,-0.91728c-0.9828,0 -1.76904,0.3276 -2.42424,0.91728c-0.6552,0.6552 -0.91728,1.44144 -0.91728,2.42424l0,18.47664c0,1.638 -0.45864,3.01392 -1.3104,4.2588c-0.85176,1.3104 -2.03112,2.2932 -3.53808,3.01392c-1.50696,0.78624 -3.21048,1.11384 -4.97952,1.11384c-3.21048,0 -5.70024,-0.85176 -7.60032,-2.68632c-1.90008,-1.83456 -2.81736,-4.52088 -2.81736,-8.05896l0,-16.11792c0,-0.91728 -0.3276,-1.70352 -0.9828,-2.35872c-0.6552,-0.6552 -1.44144,-0.9828 -2.35872,-0.9828c-0.9828,0 -1.76904,0.3276 -2.42424,0.9828c-0.6552,0.6552 -0.91728,1.44144 -0.91728,2.35872l0,16.11792c0,3.6036 0.6552,6.61752 2.03112,9.10728c1.3104,2.48976 3.21048,4.45536 5.63472,5.70024c2.2932,1.3104 4.78296,1.9656 7.5348,2.03112c0.13104,0 5.17608,0 15.33168,0c0.85176,0 1.57248,-0.3276 2.16216,-0.91728c0.58968,-0.58968 0.91728,-1.3104 0.91728,-2.22768l0,-0.58968z" id="path341281"/>
    <path transform="translate(1.70530e-13 0) translate(0 295.688)" stroke="#757983" fill="#757983" stroke-miterlimit="2" stroke-width="0" d="m143.62975,-274.72132c-3.40705,-3.9312 -7.73137,-5.8968 -12.84193,-5.8968c-3.40703,0 -6.48647,0.78624 -9.17279,2.35872c-2.75184,1.57248 -4.84849,3.73464 -6.35545,6.48648c-1.50696,2.75184 -2.22768,5.8968 -2.22768,9.36936c0,3.40704 0.72072,6.552 2.2932,9.30384c1.57248,2.75184 3.73465,4.914 6.48649,6.48648c2.75184,1.57248 5.83127,2.35872 9.30384,2.35872c4.71743,0 8.64864,-1.44144 11.79359,-4.38984c0.52417,-0.52416 0.78625,-1.11384 0.78625,-1.76904c0,-0.85176 -0.45865,-1.638 -1.24488,-2.35872c-0.52417,-0.39312 -1.11385,-0.58968 -1.70352,-0.58968c-0.78625,0 -1.63801,0.3276 -2.42425,0.91728c-1.83456,1.57248 -4.25879,2.2932 -7.20719,2.2932c-2.29321,0 -4.32433,-0.52416 -6.09337,-1.57248c-1.76903,-1.04832 -3.14495,-2.48976 -4.12776,-4.32432c-0.9828,-1.83456 -1.44144,-3.99672 -1.44144,-6.35544c0,-3.66912 1.04833,-6.68304 3.14496,-8.91072c2.09664,-2.22768 4.78297,-3.40704 8.19,-3.40704c1.638,0 3.07945,0.3276 4.38984,0.85176c1.3104,0.52416 2.48976,1.37592 3.6036,2.55528c0.65521,0.78624 1.50696,1.17936 2.55528,1.17936c0.52416,0 1.04833,-0.13104 1.50696,-0.45864c0.91728,-0.6552 1.44144,-1.44144 1.44144,-2.42424c0,-0.6552 -0.26208,-1.17936 -0.65519,-1.70352z" id="path341283"/>
    <path transform="translate(1.70530e-13 0) translate(0 295.688)" stroke="#7c808a" fill="#7c808a" stroke-miterlimit="2" stroke-width="0" d="m194.91778,-262.40356c0,-3.34152 -0.85175,-6.48648 -2.42424,-9.23832c-1.57247,-2.75184 -3.73464,-4.97952 -6.48648,-6.552c-2.75184,-1.57248 -5.76576,-2.42424 -9.10727,-2.42424c-3.40705,0 -6.48648,0.85176 -9.23832,2.42424c-2.75184,1.57248 -4.91401,3.80016 -6.48649,6.552c-1.57248,2.75184 -2.35872,5.83128 -2.35872,9.23832c0,3.40704 0.72072,6.552 2.16216,9.30384c1.44144,2.75184 3.47256,4.914 6.02784,6.48648c2.6208,1.638 5.43816,2.42424 8.58313,2.42424l0.52415,0l15.65929,0c0.85175,0 1.57248,-0.3276 2.22768,-0.91728c0.58967,-0.58968 0.91727,-1.3104 0.91727,-2.22768l0,-0.45864l0,-14.61096zm-28.1736,6.28992c-1.04832,-1.83456 -1.50696,-3.9312 -1.50696,-6.28992c0,-2.2932 0.45864,-4.38984 1.50696,-6.28992c1.04832,-1.83456 2.42424,-3.34152 4.19328,-4.38984c1.76904,-1.04832 3.73464,-1.638 5.96233,-1.638c2.16215,0 4.12776,0.58968 5.89679,1.638c1.76904,1.04832 3.14496,2.55528 4.19328,4.38984c0.98281,1.90008 1.50696,3.99672 1.50696,6.28992c0,2.35872 -0.52415,4.45536 -1.50696,6.28992c-1.04832,1.83456 -2.42424,3.34152 -4.19328,4.38984c-1.76903,1.04832 -3.73464,1.57248 -5.89679,1.57248c-2.22769,0 -4.19329,-0.52416 -5.96233,-1.57248c-1.76904,-1.04832 -3.14496,-2.55528 -4.19328,-4.38984z" id="path341285"/>
    <path transform="translate(1.70530e-13 0) translate(0 295.688)" stroke="#848892" fill="#848892" stroke-miterlimit="2" stroke-width="0" d="m212.87048,-279.43875c-0.65519,0.6552 -0.91727,1.44144 -0.91727,2.42424l0,29.1564c0,0.9828 0.26208,1.76904 0.91727,2.42424c0.6552,0.6552 1.44145,0.91728 2.42424,0.91728c0.9828,0 1.76905,-0.26208 2.42424,-0.91728c0.58968,-0.6552 0.91728,-1.44144 0.91728,-2.42424l0,-29.1564c0,-0.9828 -0.3276,-1.76904 -0.91728,-2.42424c-0.65519,-0.58968 -1.44144,-0.91728 -2.42424,-0.91728c-0.98279,0 -1.76904,0.3276 -2.42424,0.91728z" id="path341287"/>
    <path transform="translate(1.70530e-13 0) translate(0 295.688)" stroke="#8b8f99" fill="#8b8f99" stroke-miterlimit="2" stroke-width="0" d="m242.54822,-251.19963c-0.91728,-0.91728 -1.9656,-1.37592 -3.14496,-1.37592c-1.24488,0 -2.2932,0.45864 -3.21048,1.37592c-0.91728,0.91728 -1.3104,1.9656 -1.3104,3.21048c0,1.24488 0.39312,2.2932 1.3104,3.21048c0.91728,0.91728 1.9656,1.3104 3.21048,1.3104c1.24488,0 2.2932,-0.39312 3.21048,-1.3104c0.85176,-0.91728 1.3104,-1.9656 1.3104,-3.21048c0,-1.24488 -0.45864,-2.2932 -1.37592,-3.21048z" id="path341289"/>
    <path transform="translate(1.70530e-13 0) translate(0 295.688)" stroke="#9396a0" fill="#9396a0" stroke-miterlimit="2" stroke-width="0" d="m260.14052,-279.04564l0,5.63472l0,25.5528c0,1.04832 0.26208,1.83456 0.91728,2.42424c0.6552,0.6552 1.37592,0.91728 2.2932,0.91728c1.04832,0 1.90008,-0.26208 2.55528,-0.91728c0.58968,-0.58968 0.91728,-1.37592 0.91728,-2.42424l0,-25.5528l6.68304,0c0.91728,0 1.638,-0.26208 2.22768,-0.78624c0.52416,-0.52416 0.85176,-1.17936 0.85176,-1.9656c0,-0.85176 -0.3276,-1.57248 -0.85176,-2.09664c-0.58968,-0.52416 -1.3104,-0.78624 -2.22768,-0.78624l-6.68304,0l0,-1.76904c0,-2.6208 0.72072,-4.78296 2.22768,-6.42096c1.44144,-1.57248 3.40704,-2.42424 5.8968,-2.42424c0.91728,0 1.70352,-0.26208 2.35872,-0.85176c0.6552,-0.52416 0.9828,-1.24488 0.9828,-2.16216c0,-0.85176 -0.3276,-1.57248 -0.9828,-2.16216c-0.6552,-0.52416 -1.44144,-0.85176 -2.35872,-0.85176c-2.9484,0 -5.50368,0.6552 -7.73136,1.9656c-2.22768,1.3104 -3.99672,3.07944 -5.2416,5.43816c-1.24488,2.35872 -1.83456,5.04504 -1.83456,8.12448l0,1.11384z" id="path341291"/>
    <path transform="translate(1.70530e-13 0) translate(0 295.688)" stroke="#9a9ea7" fill="#9a9ea7" stroke-miterlimit="2" stroke-width="0" d="m322.80455,-247.85811l0,-29.22192c0,-0.9828 -0.3276,-1.76904 -0.91728,-2.42424c-0.6552,-0.58968 -1.44144,-0.91728 -2.42424,-0.91728c-0.9828,0 -1.76904,0.3276 -2.42424,0.91728c-0.6552,0.6552 -0.91728,1.44144 -0.91728,2.42424l0,18.47664c0,1.638 -0.45864,3.01392 -1.3104,4.2588c-0.85176,1.3104 -2.03112,2.2932 -3.53808,3.01392c-1.50696,0.78624 -3.21048,1.11384 -4.97952,1.11384c-3.21048,0 -5.70024,-0.85176 -7.60032,-2.68632c-1.90008,-1.83456 -2.81736,-4.52088 -2.81736,-8.05896l0,-16.11792c0,-0.91728 -0.3276,-1.70352 -0.9828,-2.35872c-0.6552,-0.6552 -1.44144,-0.9828 -2.35872,-0.9828c-0.9828,0 -1.76904,0.3276 -2.42424,0.9828c-0.6552,0.6552 -0.91728,1.44144 -0.91728,2.35872l0,16.11792c0,3.6036 0.6552,6.61752 2.03112,9.10728c1.3104,2.48976 3.21048,4.45536 5.63472,5.70024c2.2932,1.3104 4.78296,1.9656 7.5348,2.03112c0.13104,0 5.17608,0 15.33168,0c0.85176,0 1.57248,-0.3276 2.16216,-0.91728c0.58968,-0.58968 0.91728,-1.3104 0.91728,-2.22768l0,-0.58968z" id="path341293"/>
    <path transform="translate(1.70530e-13 0) translate(0 295.688)" stroke="#a2a5ae" fill="#a2a5ae" stroke-miterlimit="2" stroke-width="0" d="m372.52526,-272.95228c-1.37591,-2.48976 -3.27599,-4.45536 -5.63472,-5.76576c-2.2932,-1.17936 -4.78296,-1.83456 -7.5348,-1.90008c-0.06552,0 -0.19656,-0.06552 -0.19656,-0.06552l-15.06959,0c-0.91729,0 -1.63801,0.3276 -2.22768,0.91728c-0.6552,0.6552 -0.91728,1.37592 -0.91728,2.22768c0,0.06552 0,0.19656 0,0.26208c0,0.13104 0,0.19656 0,0.26208l0,29.22192c0,0.9828 0.26208,1.76904 0.91728,2.42424c0.65519,0.6552 1.44143,0.91728 2.42424,0.91728c0.98279,0 1.76903,-0.26208 2.42424,-0.91728c0.58968,-0.6552 0.91727,-1.44144 0.91727,-2.42424l0,-18.47664c0,-1.57248 0.39312,-2.9484 1.24488,-4.2588c0.85177,-1.24488 2.03112,-2.22768 3.53809,-3.01392c1.50695,-0.72072 3.21047,-1.11384 5.04504,-1.11384c3.14496,0 5.63472,0.91728 7.53479,2.75184c1.90008,1.83456 2.88288,4.52088 2.88288,7.99344l0,16.11792c0,0.9828 0.26209,1.76904 0.91729,2.42424c0.65519,0.6552 1.44143,0.91728 2.42424,0.91728c0.91727,0 1.70351,-0.26208 2.35872,-0.91728c0.6552,-0.6552 0.98279,-1.44144 0.98279,-2.42424l0,-16.11792c0,-3.53808 -0.72071,-6.552 -2.03112,-9.04176z" id="path341295"/>
   </g>
   <image width="0" height="0" y="-350.7486" x="-324.72183" id="icon"/>
  </g>
 </g>
</svg>